<svg xmlns="http://www.w3.org/2000/svg" width="40" height="40" viewBox="0 0 40 40">
  <g id="git-hover" transform="translate(863 28)">
    <g id="Ellipse_2" data-name="Ellipse 2" transform="translate(-863 -28)" fill="none" stroke="#005de5" stroke-width="2">
      <circle cx="20" cy="20" r="20" stroke="none"/>
      <circle cx="20" cy="20" r="19" fill="none"/>
    </g>
    <path id="gh" d="M102.47,125.828v-4.366a3.177,3.177,0,0,1-3.562-1.585c-.3-.506-.831-1.054-1.386-1.014l-.136-1.54a3.18,3.18,0,0,1,2.851,1.765,1.71,1.71,0,0,0,.992.849,2.079,2.079,0,0,0,1.3-.113,3.625,3.625,0,0,1,.909-1.86h0c-3.437-.513-4.807-2.336-5.351-3.776a6.055,6.055,0,0,1,.94-5.807.207.207,0,0,0,.052-.16,5.062,5.062,0,0,1,.154-3.379,5.343,5.343,0,0,1,2.928,1.1l.371.223c.155.092.106.04.261.028a10.051,10.051,0,0,1,5.577.01l.12.012c-.01,0,.033-.008.1-.051,2.679-1.623,2.583-1.092,3.3-1.326a5.148,5.148,0,0,1,.15,3.381c-.078.24,2.323,2.438.992,5.967-.544,1.44-1.913,3.263-5.351,3.776h0a3.393,3.393,0,0,1,.967,2.414v5.45C108.635,125.839,102.48,125.839,102.47,125.828Z" transform="translate(-948.817 -122.84)" fill="#005de5"/>
  </g>
</svg>
